PathFileType  4	(X/Y/Z) C:\Users\antoi\Documents\MyRepositories\mobilecap\ResultsAnalysis
DataRate	CameraRate	NumFrames	NumMarkers	Units	OrigDataRate	OrigDataStartFrame	OrigNumFrames
100.0	100.0	6	51	mm	100.0	33	261
Frame#	Time	r_knee			r_shank_antsup			r_ankle			r_calc			r_5meta			r_toe			L_knee			L_shank_antsup			L_ankle			L_calc			L_5meta			L_toe			r_sh2			r_sh3			r_sh4			L_sh2			L_sh3			r_thigh1			r_thigh2			r_thigh3			r_thigh4			r_thigh5			L_thigh1			L_thigh2			L_thigh3			L_thigh4			r.ASIS			r.PSIS			L.ASIS			L.PSIS			C7			R_Shoulder			L_Shoulder			R_Sternum			L_Sternum			R_humerus			R_elbow_med			R_elbow_lat			R_forearm			R_wrist_radius			R_wrist_ulna			L_humerus			L_elbow_med			L_elbow_lat			L_forearm			L_wrist_radius			L_wrist_ulna			R_HJC			L_HJC			R_HJC_reg			L_HJC_reg			
		X1	Y1	Z1	X2	Y2	Z2	X3	Y3	Z3	X4	Y4	Z4	X5	Y5	Z5	X6	Y6	Z6	X7	Y7	Z7	X8	Y8	Z8	X9	Y9	Z9	X10	Y10	Z10	X11	Y11	Z11	X12	Y12	Z12	X13	Y13	Z13	X14	Y14	Z14	X15	Y15	Z15	X16	Y16	Z16	X17	Y17	Z17	X18	Y18	Z18	X19	Y19	Z19	X20	Y20	Z20	X21	Y21	Z21	X22	Y22	Z22	X23	Y23	Z23	X24	Y24	Z24	X25	Y25	Z25	X26	Y26	Z26	X27	Y27	Z27	X28	Y28	Z28	X29	Y29	Z29	X30	Y30	Z30	X31	Y31	Z31	X32	Y32	Z32	X33	Y33	Z33	X34	Y34	Z34	X35	Y35	Z35	X36	Y36	Z36	X37	Y37	Z37	X38	Y38	Z38	X39	Y39	Z39	X40	Y40	Z40	X41	Y41	Z41	X42	Y42	Z42	X43	Y43	Z43	X44	Y44	Z44	X45	Y45	Z45	X46	Y46	Z46	X47	Y47	Z47	X48	Y48	Z48	X49	Y49	Z49	X50	Y50	Z50	X51	Y51	Z51	

33	0.32000000	-1127.03505	785.83861	-433.51854	-1157.17450	745.49119	-403.96383	-1258.08422	402.98537	-457.94437	-1318.45783	363.48676	-510.63246	-1140.84490	350.14111	-415.38685	-1099.22974	372.09112	-469.36140	-1130.42728	784.07682	-727.19852	-1116.25433	693.40188	-736.67556	-1258.27002	405.33885	-704.81151	-1323.19697	367.13644	-658.73639	-1143.31458	352.14053	-727.92386	-1099.87468	370.78941	-672.55398	-1191.23381	634.65463	-400.91130	-1091.51656	729.61703	-442.26835	-1128.15719	620.03928	-457.18727	-1195.50197	729.49346	-751.97496	-1234.02647	613.74639	-748.19003	-1105.82695	1085.11791	-487.85368	-1070.06884	980.03219	-476.47233	-1082.73675	957.34107	-413.12623	-1161.56472	1074.59466	-390.06409	-1134.37762	964.96817	-387.16855	-1159.11115	1102.76635	-748.63381	-1131.55313	963.08136	-758.99397	-1268.01435	1080.89486	-749.66173	-1242.32990	943.28366	-728.47971	-1132.56307	1238.60143	-452.35108	-1315.67967	1303.16331	-526.82980	-1135.85607	1221.00686	-684.40185	-1317.22616	1302.67536	-624.32786	-1089.35013	1737.23061	-589.71472	-1030.96989	1682.95104	-426.87138	-1053.96729	1668.92235	-748.73125	-1023.60515	1609.39455	-572.50253	-1023.73111	1605.23325	-609.39079	-1139.86178	1478.60594	-326.02340	-1241.13663	1435.71681	-341.65695	-1206.60172	1419.36350	-293.56896	-1221.48334	1276.05818	-273.86681	-1240.42094	1172.00234	-282.81389	-1270.18125	1186.46514	-253.53836	-1173.78343	1471.84012	-832.66740	-1266.06226	1406.66991	-790.42043	-1248.13269	1402.62895	-847.70699	-1242.88150	1258.45349	-871.05824	-1236.97020	1150.49003	-858.47919	-1278.78501	1154.74467	-873.01907	-1221.96082	1170.75717	-481.29774	-1234.19673	1170.49855	-671.57605	-1213.74083	1173.38935	-482.71673	-1216.17742	1172.62061	-636.30405	
34	0.33000000	-1124.40636	784.89321	-433.76938	-1154.73360	744.37694	-404.38180	-1257.93283	403.09502	-458.05810	-1318.46569	363.52422	-510.63138	-1140.81877	350.20335	-415.50625	-1099.20299	372.22414	-469.48834	-1128.05887	783.11903	-727.01206	-1114.05088	692.36877	-736.39469	-1257.99198	405.53935	-704.92620	-1323.19212	367.10037	-658.53193	-1143.30756	352.13808	-727.93097	-1099.91058	370.72532	-672.58813	-1189.71347	634.19889	-401.11535	-1088.85657	728.36519	-442.65825	-1126.32034	619.18567	-457.44892	-1193.02469	729.17229	-751.78738	-1232.44442	613.73542	-748.00058	-1106.94066	1084.27512	-487.66321	-1069.69352	979.48209	-476.42512	-1082.08247	956.63368	-413.04752	-1162.39365	1073.09195	-389.97105	-1133.90013	963.55968	-387.32226	-1160.52994	1101.26692	-748.54436	-1131.44076	961.84406	-759.03661	-1270.19463	1077.44085	-749.48912	-1241.98226	940.92895	-728.21888	-1133.57824	1235.46308	-452.21819	-1315.85018	1302.39889	-526.55447	-1137.32166	1217.68529	-684.16661	-1317.44284	1301.87337	-623.96150	-1082.33477	1731.72568	-590.74492	-1022.96921	1676.80823	-427.03631	-1050.02988	1662.23808	-745.75091	-1018.38445	1603.65884	-572.89889	-1018.22668	1599.62082	-609.53858	-1138.67390	1476.43511	-325.14144	-1241.36587	1437.40032	-340.68405	-1207.66566	1419.79532	-293.19856	-1229.45070	1278.00727	-271.16583	-1253.83951	1174.90697	-278.46459	-1282.75357	1191.29378	-249.35233	-1173.29253	1469.65832	-832.83427	-1267.04660	1407.23872	-790.40721	-1249.60546	1403.07482	-847.93234	-1251.40710	1259.27306	-873.07667	-1250.71807	1151.00361	-862.21067	-1292.51129	1157.39683	-875.70133	-1223.88660	1168.79529	-480.96096	-1236.31317	1168.53227	-671.22674	-1215.66524	1171.28771	-482.49316	-1218.17566	1170.45948	-636.02535	
35	0.34000000	-1121.74676	783.86708	-433.82381	-1152.05015	743.61128	-404.47597	-1258.06997	404.23397	-458.04150	-1318.49169	363.56683	-510.71067	-1140.87274	350.21553	-415.70573	-1099.11031	372.34024	-469.53495	-1125.60848	782.13506	-726.87829	-1111.89375	691.19621	-736.07460	-1257.65319	405.72770	-704.99826	-1323.16972	367.09097	-658.41394	-1143.29226	352.13760	-727.95097	-1099.96865	370.67282	-672.62819	-1187.53968	633.81140	-401.11290	-1086.22468	727.17196	-442.92559	-1124.39668	618.22872	-457.90097	-1190.52759	728.79531	-751.61941	-1230.76923	613.51763	-747.73520	-1107.98671	1083.37558	-487.47000	-1069.49557	979.03595	-476.22259	-1081.57395	955.84396	-412.97698	-1163.29707	1071.42509	-389.74542	-1133.37194	962.12712	-387.38879	-1162.07374	1099.51945	-748.32829	-1131.36609	960.51270	-758.97941	-1271.34858	1074.46105	-749.30736	-1241.62725	938.59085	-728.15619	-1134.61517	1232.05867	-452.00301	-1316.03366	1301.48269	-526.17862	-1138.80592	1214.06830	-683.78822	-1317.65850	1300.88359	-623.64445	-1075.11879	1726.07925	-591.24463	-1014.90236	1670.19073	-427.29417	-1044.70635	1655.57309	-744.38276	-1012.99407	1597.50407	-572.96796	-1012.69752	1593.51824	-609.58375	-1137.40801	1474.13384	-324.41271	-1241.48940	1439.21396	-339.37412	-1208.48865	1420.14548	-292.81219	-1236.90942	1280.23345	-268.72099	-1266.53409	1178.29007	-274.56573	-1294.55739	1196.64279	-245.59329	-1172.53710	1467.34323	-833.36273	-1267.85296	1407.87189	-790.50315	-1250.84642	1403.38262	-848.11616	-1259.59186	1260.29799	-874.87586	-1264.12078	1151.95290	-865.58223	-1305.67084	1160.56262	-878.21842	-1225.89931	1166.64747	-480.52880	-1238.47522	1166.34017	-670.78450	-1217.65674	1169.02223	-482.16884	-1220.21431	1168.07919	-635.60807	
36	0.35000000	-1119.11954	782.78597	-433.80082	-1149.15062	742.74282	-404.82842	-1258.38280	405.91986	-457.99316	-1318.51120	363.57689	-510.76920	-1140.98363	350.19038	-415.95664	-1099.00448	372.39238	-469.47890	-1123.16434	781.20557	-726.94826	-1109.69101	690.09252	-735.99928	-1257.41378	405.77288	-704.84960	-1323.13949	367.12365	-658.39555	-1143.29297	352.13485	-727.96780	-1099.98618	370.63176	-672.65909	-1185.01367	633.53269	-401.08108	-1083.56209	725.94244	-442.94387	-1122.51208	617.19340	-458.40077	-1188.04107	728.36740	-751.65202	-1229.09309	613.28059	-747.58495	-1108.88006	1082.33388	-487.16043	-1069.33826	978.76111	-475.79984	-1081.10050	954.96398	-412.83554	-1164.23885	1069.50773	-389.58463	-1132.89549	960.67389	-387.36398	-1163.52847	1097.77505	-748.37260	-1131.10192	959.31460	-759.04328	-1272.33091	1071.32693	-748.69269	-1241.22550	936.11662	-728.15561	-1135.81384	1228.39142	-451.84272	-1316.18842	1300.41795	-525.78641	-1140.33262	1210.34680	-683.24955	-1317.84096	1299.74848	-623.40520	-1067.65775	1720.42708	-591.12827	-1006.81051	1663.10475	-427.48854	-1037.68132	1649.09354	-745.20544	-1007.04743	1591.02068	-573.02060	-1007.23119	1586.91926	-609.45627	-1135.95918	1471.54944	-323.96337	-1241.15063	1440.59644	-338.68598	-1209.05828	1420.40188	-292.47413	-1243.87432	1282.59925	-266.59178	-1278.49714	1181.95380	-270.98182	-1305.49980	1202.22010	-242.38035	-1171.56138	1464.73922	-833.91364	-1268.39268	1408.43801	-790.70281	-1251.76852	1403.57296	-848.32784	-1267.37941	1261.47406	-876.59470	-1277.19046	1153.37576	-868.53409	-1318.18329	1164.16447	-880.63094	-1228.04015	1164.31169	-480.12932	-1240.65655	1164.05228	-670.38270	-1219.74637	1166.70999	-481.87792	-1222.33972	1165.65950	-635.07327	
37	0.36000000	-1116.49322	781.53148	-434.15234	-1146.27909	741.68368	-405.18062	-1258.27699	406.72020	-458.19923	-1318.46844	363.57461	-510.71489	-1141.03022	350.12628	-416.07728	-1098.97421	372.29744	-469.48713	-1120.71546	780.32534	-727.28667	-1107.45539	689.13584	-736.19900	-1257.32396	405.72337	-704.59648	-1323.13547	367.15804	-658.37651	-1143.32566	352.11489	-727.98553	-1099.92903	370.60985	-672.70296	-1182.88492	632.95696	-401.26717	-1080.83647	724.50996	-442.89673	-1120.71502	616.06605	-458.65395	-1185.56375	727.93873	-751.79210	-1227.57303	613.19830	-747.63428	-1109.73657	1081.15793	-486.78825	-1069.04496	978.33453	-475.28749	-1080.57402	954.00879	-412.56718	-1165.27384	1067.54756	-389.44669	-1132.48597	959.09799	-387.14496	-1164.89360	1096.07951	-748.62710	-1130.65095	958.16093	-759.17767	-1273.86992	1067.77513	-747.63618	-1240.74514	933.46641	-728.13428	-1137.15128	1224.55450	-451.73191	-1316.26609	1299.24196	-525.58220	-1141.94999	1206.31902	-682.66021	-1317.96386	1298.47381	-623.27096	-1060.05976	1714.67197	-591.18380	-998.65688	1655.54926	-427.52186	-1030.78681	1642.03903	-745.63408	-1000.44355	1584.23535	-573.75231	-1001.31710	1580.05468	-609.84951	-1134.29536	1468.59402	-323.72673	-1240.21604	1441.24101	-338.99683	-1209.35782	1420.48886	-292.33501	-1250.29782	1284.88533	-264.73848	-1289.64843	1185.71225	-267.85519	-1315.52807	1207.80353	-239.64684	-1170.39715	1461.78087	-834.10485	-1268.61898	1408.75727	-790.85113	-1252.32984	1403.54411	-848.54263	-1274.64826	1262.74715	-878.15689	-1289.63161	1155.13500	-871.03269	-1330.04245	1168.04515	-882.81108	-1230.32302	1161.87884	-479.73736	-1242.91456	1161.55031	-669.99240	-1221.93141	1164.28522	-481.58728	-1224.58869	1163.08324	-634.47900	
38	0.37000000	-1113.78844	780.10903	-434.72438	-1143.40639	740.77363	-404.92977	-1257.54399	406.61477	-458.61626	-1318.40985	363.60438	-510.61732	-1140.99039	350.02681	-416.02295	-1098.99802	372.03797	-469.62277	-1118.16591	779.25131	-727.51357	-1105.24827	688.22733	-736.52749	-1257.28415	405.72291	-704.46410	-1323.14769	367.19335	-658.34484	-1143.37595	352.07450	-728.01398	-1099.86845	370.59861	-672.78435	-1181.20271	631.93570	-401.56499	-1078.04763	722.94781	-442.95709	-1118.92575	614.91212	-458.73502	-1183.13133	727.54381	-751.79899	-1226.15276	613.14703	-747.64524	-1110.69914	1079.87045	-486.44396	-1068.72965	977.58571	-474.78850	-1080.02756	953.05529	-412.25422	-1166.29928	1065.59273	-389.12065	-1132.00824	957.44021	-386.75667	-1166.29306	1094.21491	-748.64968	-1130.25833	956.78542	-759.00649	-1275.32722	1064.38364	-746.92298	-1240.20675	930.80832	-728.10209	-1138.43664	1220.58783	-451.61149	-1316.27051	1297.92308	-525.49964	-1143.71115	1201.60802	-682.16227	-1318.01530	1297.02651	-623.11351	-1052.39242	1708.67995	-591.49651	-990.54008	1647.56121	-427.51760	-1024.17733	1634.39163	-745.34487	-994.48820	1576.66737	-573.77585	-995.26760	1572.84167	-610.36916	-1132.44929	1465.26173	-323.64847	-1238.91088	1441.39742	-339.63889	-1209.30058	1420.27796	-292.38791	-1256.10060	1286.98133	-263.08200	-1299.86161	1189.52968	-265.32778	-1324.71717	1213.22368	-237.35401	-1168.97063	1458.52205	-834.20373	-1268.56377	1408.77999	-790.84042	-1252.58468	1403.15659	-848.57395	-1281.25143	1264.01504	-879.35000	-1301.33104	1157.07447	-873.09368	-1341.19151	1172.05152	-884.66318	-1232.65848	1159.37758	-479.19558	-1245.37843	1158.61589	-669.44008	-1224.17119	1161.46478	-481.26934	-1226.90027	1160.06228	-633.95736	
